<?xml version="1.0" encoding="utf-8"?>
<!-- Generator: Adobe Illustrator 22.0.0, SVG Export Plug-In . SVG Version: 6.00 Build 0)  -->
<svg version="1.1" id="Layer_1" xmlns="http://www.w3.org/2000/svg" xmlns:xlink="http://www.w3.org/1999/xlink" x="0px" y="0px"
	 viewBox="0 0 1280 980" style="enable-background:new 0 0 1280 980;" xml:space="preserve">
<style type="text/css">
	.st0{fill:#232626;}
	.st1{fill:#D1FFFF;}
	.st2{fill:#C2FFFF;}
	.st3{fill:#86BFBF;}
</style>
<path class="st0" d="M113,405"/>
<g>
	<ellipse class="st1" cx="135" cy="311" rx="41" ry="22"/>
	<ellipse class="st1" cx="115" cy="308.5" rx="34" ry="23.5"/>
	<ellipse class="st1" cx="164.5" cy="303" rx="39.5" ry="29"/>
	<ellipse class="st1" cx="134" cy="281" rx="40" ry="23"/>
</g>
<g>
	<ellipse class="st2" cx="768" cy="96" rx="41" ry="22"/>
	<ellipse class="st2" cx="748" cy="93.5" rx="34" ry="23.5"/>
	<ellipse class="st2" cx="797.5" cy="88" rx="39.5" ry="29"/>
	<ellipse class="st2" cx="767" cy="66" rx="40" ry="23"/>
</g>
<g>
	<ellipse class="st3" cx="1040" cy="77" rx="41" ry="22"/>
	<ellipse class="st3" cx="1020" cy="74.5" rx="34" ry="23.5"/>
	<ellipse class="st3" cx="1069.5" cy="69" rx="39.5" ry="29"/>
	<ellipse class="st3" cx="1039" cy="47" rx="40" ry="23"/>
</g>
<g>
	<ellipse class="st3" cx="345" cy="74" rx="41" ry="22"/>
	<ellipse class="st3" cx="325" cy="71.5" rx="34" ry="23.5"/>
	<ellipse class="st3" cx="374.5" cy="66" rx="39.5" ry="29"/>
	<ellipse class="st3" cx="344" cy="44" rx="40" ry="23"/>
</g>
<g>
	<ellipse class="st1" cx="1058" cy="265" rx="41" ry="22"/>
	<ellipse class="st1" cx="1038" cy="262.5" rx="34" ry="23.5"/>
	<ellipse class="st1" cx="1087.5" cy="257" rx="39.5" ry="29"/>
	<ellipse class="st1" cx="1057" cy="235" rx="40" ry="23"/>
</g>
<g>
	<ellipse class="st2" cx="450.5" cy="372.5" rx="41" ry="22"/>
	<ellipse class="st2" cx="430.5" cy="370" rx="34" ry="23.5"/>
	<ellipse class="st2" cx="480" cy="364.5" rx="39.5" ry="29"/>
	<ellipse class="st2" cx="449.5" cy="342.5" rx="40" ry="23"/>
</g>
<g>
	<ellipse class="st3" cx="592.7" cy="207.5" rx="41" ry="22"/>
	<ellipse class="st3" cx="572.7" cy="205" rx="34" ry="23.5"/>
	<ellipse class="st3" cx="622.2" cy="199.5" rx="39.5" ry="29"/>
	<ellipse class="st3" cx="591.7" cy="177.5" rx="40" ry="23"/>
</g>
<g>
	<ellipse class="st1" cx="836" cy="295" rx="41" ry="22"/>
	<ellipse class="st1" cx="816" cy="292.5" rx="34" ry="23.5"/>
	<ellipse class="st1" cx="865.5" cy="287" rx="39.5" ry="29"/>
	<ellipse class="st1" cx="835" cy="265" rx="40" ry="23"/>
</g>
<g>
	<ellipse class="st3" cx="196.5" cy="152" rx="41" ry="22"/>
	<ellipse class="st3" cx="176.5" cy="149.5" rx="34" ry="23.5"/>
	<ellipse class="st3" cx="226" cy="144" rx="39.5" ry="29"/>
	<ellipse class="st3" cx="195.5" cy="122" rx="40" ry="23"/>
</g>
</svg>
