<?xml version="1.0" encoding="utf-8"?>
<!-- Generator: Adobe Illustrator 22.0.0, SVG Export Plug-In . SVG Version: 6.00 Build 0)  -->
<svg version="1.1" id="fc473563-838c-4b37-be93-34ef803eaab9"
	 xmlns="http://www.w3.org/2000/svg" xmlns:xlink="http://www.w3.org/1999/xlink" x="0px" y="0px" viewBox="0 0 1132 861.2"
	 style="enable-background:new 0 0 1132 861.2;" xml:space="preserve">
<style type="text/css">
	.st0{fill:#3F3D56;}
	.st1{fill:#D0CDE1;}
	.st2{fill:#6C63FF;}
	.st3{fill:#010105;}
	.st4{fill:#010107;}
	.st5{fill:#FFB9B9;}
	.st6{fill:#2F2E41;}
</style>
<title>location_search</title>
<rect x="351.6" y="719.2" class="st0" width="780.4" height="2.8"/>
<rect x="83.6" y="858.4" class="st0" width="780.4" height="2.8"/>
<path class="st0" d="M912.8,570.8c107,118.3-203.1,288.8-453.7,288.8S35.1,727.5,5.3,570.8C-66.9,190.8,620.4-50.7,459.1,282
	C223.9,766.8,828.5,477.6,912.8,570.8z"/>
<circle class="st1" cx="332" cy="193.5" r="9.1"/>
<circle class="st1" cx="208.4" cy="739.3" r="9.1"/>
<circle class="st1" cx="348.2" cy="327.1" r="4.1"/>
<circle class="st1" cx="135.5" cy="537.8" r="4.1"/>
<circle class="st1" cx="668.2" cy="689.7" r="4.1"/>
<circle class="st1" cx="122.4" cy="331.2" r="4.1"/>
<polygon class="st1" points="368.4,223.8 366.4,223.8 366.4,221.8 365.4,221.8 365.4,223.8 363.4,223.8 363.4,224.9 365.4,224.9 
	365.4,226.9 366.4,226.9 366.4,224.9 368.4,224.9 "/>
<polygon class="st1" points="213.5,257.3 211.5,257.3 211.5,255.2 210.5,255.2 210.5,257.3 208.4,257.3 208.4,258.3 210.5,258.3 
	210.5,260.3 211.5,260.3 211.5,258.3 213.5,258.3 "/>
<polygon class="st1" points="112.2,447.6 110.2,447.6 110.2,445.6 109.2,445.6 109.2,447.6 107.2,447.6 107.2,448.6 109.2,448.6 
	109.2,450.7 110.2,450.7 110.2,448.6 112.2,448.6 "/>
<circle class="st1" cx="396.8" cy="776.7" r="4.1"/>
<circle class="st1" cx="383.6" cy="570.2" r="4.1"/>
<circle class="st1" cx="862.6" cy="645.1" r="4.1"/>
<polygon class="st1" points="373.5,686.6 371.5,686.6 371.5,684.6 370.5,684.6 370.5,686.6 368.4,686.6 368.4,687.6 370.5,687.6 
	370.5,689.7 371.5,689.7 371.5,687.6 373.5,687.6 "/>
<polygon class="st1" points="569.9,758.5 567.9,758.5 567.9,756.5 566.9,756.5 566.9,758.5 564.9,758.5 564.9,759.5 566.9,759.5 
	566.9,761.6 567.9,761.6 567.9,759.5 569.9,759.5 "/>
<polygon class="st1" points="73.7,578.3 71.7,578.3 71.7,576.2 70.7,576.2 70.7,578.3 68.7,578.3 68.7,579.3 70.7,579.3 70.7,581.3 
	71.7,581.3 71.7,579.3 73.7,579.3 "/>
<polygon class="st1" points="355.3,432.4 353.2,432.4 353.2,430.4 352.2,430.4 352.2,432.4 350.2,432.4 350.2,433.5 352.2,433.5 
	352.2,435.5 353.2,435.5 353.2,433.5 355.3,433.5 "/>
<polygon class="st1" points="230.7,313 228.7,313 228.7,310.9 227.7,310.9 227.7,313 225.6,313 225.6,314 227.7,314 227.7,316 
	228.7,316 228.7,314 230.7,314 "/>
<polygon class="st1" points="313.7,512.4 311.7,512.4 311.7,510.4 310.7,510.4 310.7,512.4 308.7,512.4 308.7,513.5 310.7,513.5 
	310.7,515.5 311.7,515.5 311.7,513.5 313.7,513.5 "/>
<polygon class="st1" points="192.2,638 190.2,638 190.2,636 189.2,636 189.2,638 187.2,638 187.2,639 189.2,639 189.2,641.1 
	190.2,641.1 190.2,639 192.2,639 "/>
<ellipse class="st2" cx="233.7" cy="457.8" rx="59.7" ry="9.1"/>
<path class="st1" d="M239.8,460.8c-24.4,0-60.8-2.7-60.8-10.1s36.3-10.1,60.8-10.1s60.8,2.7,60.8,10.1S264.2,460.8,239.8,460.8z
	 M239.8,442.6c-15.9,0-30.9,0.9-42.1,2.7c-13.2,2-16.6,4.4-16.6,5.4s3.5,3.4,16.6,5.4c11.2,1.7,26.2,2.7,42.1,2.7s30.9-0.9,42.1-2.7
	c13.2-2,16.6-4.4,16.6-5.4s-3.5-3.4-16.6-5.4C270.7,443.5,255.7,442.6,239.8,442.6z"/>
<path class="st3" d="M239.8,302.8c-21.3,0-38.5,5.1-38.5,26.3s17.2,106.3,38.5,106.3s38.5-85.1,38.5-106.3S261.1,302.8,239.8,302.8z
	 M239.8,357.5c-8.9,0-16.2-7.3-16.2-16.2c0-8.9,7.3-16.2,16.2-16.2c8.9,0,16.2,7.3,16.2,16.2S248.8,357.5,239.8,357.5L239.8,357.5
	L239.8,357.5z"/>
<path class="st1" d="M959,534.5c-84.2-93.2-688.9,196-453.7-288.8C610.2,29.6,356.7,55.9,186.2,205
	C351.3,91.6,550.7,88.3,455.7,284.2C220.5,769.1,825.2,479.9,909.4,573c39.2,43.4,22.4,93.7-27,140.1
	C967.3,657.5,1009.4,590.3,959,534.5z"/>
<path class="st1" d="M463.2,857.7l-1.3-0.5c-0.3-0.1-28.8-11-42.1-35.8c-13.3-24.8-6.8-54.6-6.7-54.9l0.3-1.4l1.3,0.5
	c0.3,0.1,28.8,11,42.1,35.8c13.3,24.8,6.8,54.6,6.7,54.9L463.2,857.7z M421.9,820.3c11.3,20.9,33.8,31.7,39.5,34.1
	c1.1-6.1,4.5-30.8-6.8-51.7c-11.3-20.9-33.8-31.7-39.5-34.1C414.1,774.7,410.7,799.4,421.9,820.3L421.9,820.3z"/>
<path class="st4" d="M430,814c24,14.4,33.2,43.1,33.2,43.1s-29.7,5.3-53.6-9.2s-33.2-43.1-33.2-43.1S406,799.6,430,814z"/>
<path class="st5" d="M766.6,290c0,0-55,53.9-31.9,60.5s49.5-49.5,49.5-49.5L766.6,290z"/>
<polygon class="st5" points="821.5,471.4 814.9,502.1 864.4,504.3 856.7,471.4 "/>
<polygon class="st5" points="977.6,661.5 971,692.3 1020.5,694.5 1012.8,661.5 "/>
<path class="st6" d="M890.8,265.8l4.4,17.6c0,0-122-24.2-115.4,37.4s35.2,120.9,35.2,120.9s-2.2,19.8,2.2,23.1s0,14.3,0,14.3
	s40.7,5.5,41.8-4.4c0.6-6.6,0.2-13.3-1.1-19.8c0,0,2.2,0,0-11s-11.1-99.6-17.7-111.7c0,0,58.3,44.7,89.1,39.2c0,0-4.4,44,13.2,102.2
	s17.6,64.9,17.6,64.9s20.9,111,15.4,124.2l-1.1,5.5h40.7c0,0-3.3-58.3,0-66s3.3-73.6-15.4-106.6c-13.2-23.4-10.8-91.1-3.5-117.8
	c6.1-22.5,7.6-39.8,4.1-62.8c-3.8-24.6-15.2-37.5-29.1-49.1L890.8,265.8z"/>
<circle class="st5" cx="923.2" cy="60.8" r="39.6"/>
<path class="st5" d="M912.7,88.8c0,0,12.1,35.2,11,41.8c-1.1,6.6,35.2-13.2,35.2-13.2s-14.3-35.2-9.9-45.1L912.7,88.8z"/>
<path class="st1" d="M956.7,105.3l-38.5,15.4l2.2,13.2c0,0-3.3,4.4-2.2,6.6s-14.3,11-12.1,14.3s-13.2,16.5-12.1,19.8
	s-35.2,23.1-15.4,61.6c0,0,10.3,13.3,9,29.1c0,0.6-0.1,1.1-0.2,1.7c-2.2,16.5,83.5-2.2,83.5-2.2V246c0,0,7.7-3.3,6.6-17.6
	s-7.7-7.7,0-15.4s7.7-6.6,6.6-13.2c-0.4-2.6-0.5-12.1-0.5-22.5c0.1-22-7.1-43.5-20.4-61l0,0L956.7,105.3z"/>
<path class="st1" d="M935.8,133.9l-71.5,74.7L760,291.1l23.1,18.7l192.4-128.6C975.4,181.2,991.9,110.8,935.8,133.9z"/>
<path class="st6" d="M824.8,487.8c0,0-7.7-13.2-13.2-8.8l-38.5,30.8c0,0-68.2,19.8-2.2,35.2c0,0,36.3,5.5,44,0s19.8-4.4,23.1-2.2
	s45.1-1.1,45.1-9.9s-23-47.2-23-47.2S846.8,501,824.8,487.8z"/>
<path class="st6" d="M980.9,678c0,0-7.7-13.2-13.2-8.8L929.2,700c0,0-68.2,19.8-2.2,35.2c0,0,36.3,5.5,44,0s19.8-4.4,23.1-2.2
	s45.1-1.1,45.1-9.9s-23-47.2-23-47.2S1002.9,691.2,980.9,678z"/>
<path class="st6" d="M875.8,45.1c0,0,6.7-58.8,63.9-42.1c0,0,40.5-8.2,54.8,42.3l14.5,53l-6.6-3.5l-2.9,6.8l-10.6,2.9l-4.7-9l-2,11
	l-73.2,14.8c0,0,24.8-28.3,24.6-69.7l-7.3,8L875.8,45.1z"/>
<ellipse class="st6" cx="611.5" cy="551.9" rx="107.3" ry="14.2"/>
<path class="st0" d="M669.8,380.5h-1.3v-34.8c0-11.1-9-20.1-20.1-20.1c0,0,0,0,0,0h-73.8c-11.1,0-20.1,9-20.1,20.1c0,0,0,0,0,0v191
	c0,11.1,9,20.1,20.1,20.1c0,0,0,0,0,0h73.8c11.1,0,20.1-9,20.1-20.1c0,0,0,0,0,0V405.3h1.3V380.5z"/>
<path class="st2" d="M648.7,331.3h-9.6c1.5,3.7-0.3,7.8-3.9,9.3c-0.9,0.3-1.8,0.5-2.7,0.5h-42.3c-3.9,0-7.1-3.2-7.1-7.1
	c0-0.9,0.2-1.8,0.5-2.7h-9c-8.3,0-15,6.7-15,15V537c0,8.3,6.7,15,15,15h74.1c8.3,0,15-6.7,15-15V346.3
	C663.7,338,657,331.3,648.7,331.3z"/>
<circle class="st1" cx="595.3" cy="399" r="21.3"/>
<path class="st0" d="M650.5,429.9l-25.7-25.7c7-10.7,4.1-25.2-6.7-32.2s-25.2-4.1-32.2,6.7s-4.1,25.2,6.7,32.2
	c7.8,5.1,17.8,5.1,25.5,0l25.7,25.7L650.5,429.9z M593.6,403.1c-6.5-6.5-6.5-17,0-23.4s17-6.5,23.4,0s6.5,17,0,23.4l0,0
	C610.6,409.6,600.1,409.6,593.6,403.1z"/>
<rect x="569.9" y="454.7" class="st0" width="83" height="10.1"/>
</svg>
