<?xml version="1.0" encoding="utf-8"?>
<!-- Generator: Adobe Illustrator 22.0.0, SVG Export Plug-In . SVG Version: 6.00 Build 0)  -->
<svg version="1.1" id="Layer_1" xmlns="http://www.w3.org/2000/svg" xmlns:xlink="http://www.w3.org/1999/xlink" x="0px" y="0px"
	 viewBox="0 0 1280 980" style="enable-background:new 0 0 1280 980;" xml:space="preserve">
<style type="text/css">
	.st0{fill:#FFFFFF;}
</style>
<g>
	<g id="eSjc9X.tif">
		<g>
			<path d="M533.5,65.3c2,0.4,4.1,0.8,6.2,1.1c5.1,0.8,10.2,1.6,15.5,2.4c11.2,26.2,22.5,52.5,33.7,78.7c2.2,0,4.3,0.1,6.4,0
				c8.2-0.3,16.4-0.7,24.5-1c15.2-0.6,30.4-1.2,45.6-1.8c7.7-0.3,15.3-0.6,23-0.9c15-0.6,29.9-1.2,44.9-1.8c7.7-0.3,15.3-0.6,23-0.9
				c8.2-0.3,16.5-0.7,24.8-1c3.8-0.1,7.6,0.1,11.4,0.3c8.2,0.4,16.3,0.9,24.5,1.5c9.6,0.7,19.2,1.5,28.7,3.4
				c7.5,1.5,14.5,4.1,20.9,7.8c4.5,2.6,8.9,5.4,13.5,8c2.1,1.2,4.3,2.1,6.6,3c4.3,1.7,8.7,3.3,13,5c1,0.4,1.9,1,2.8,1.5
				c5.2,2.8,7.8,6.9,8.1,12.2c0,0.8,0.3,1.5,0.4,2.3c0,0.5,0,1,0,1.6c-0.5,3.2-3.2,4.9-5.9,6.6c-5.2,3.1-11.1,4.9-17,6.6
				c-0.9,0.3-1.8,0.5-2.7,0.8c-0.8,0.2-1.7,0.2-2,1.3c-0.1,0.5-1.4,0.8-2.3,1c-3.7,0.9-7.5,1.8-11.2,2.6c-9.6,2.1-19.1,4.3-28.8,6.1
				c-4.5,0.9-9.1,1.2-13.7,1.4c-8.3,0.4-16.7,0.6-25,0.9c-16.3,0.5-32.6,1-48.9,1.4c-11.7,0.3-23.4,0.6-35.1,1
				c-22.4,0.6-44.9,1.3-67.3,2c-8.3,0.2-16.5,0.5-24.8,0.7c-3.1,0.1-6.1,0.4-9.1,1.2c-12,2.9-24.1,5.4-36.4,7.1
				c-3.5,0.5-7,0.6-10.5,0.7c-2.5,0.1-5,0-7.5,0.1c-0.8,0-1.6,0.2-2.2,0.6c-12.8,7.5-25.6,15.1-38.3,22.6c-0.2,0.1-0.4,0.2-0.5,0.3
				c0,0.1,0.1,0.2,0.2,0.4c1.4-0.2,2.9-0.3,4.3-0.5c8.2-1.1,16.3-2.3,24.5-3.2c5.1-0.6,10.2-0.8,15.3-0.2c3.5,0.4,6.4,1.5,8.8,4.1
				c3.2,3.4,4.6,7.1,5,11.4c0.7,6.3-0.6,12.2-3.5,18c-1.2,2.4-3,4.5-6.1,5.3c-0.9,0.2-1.8,0.4-2.8,0.4c-13.4,0-26.8-0.4-40.1-1.4
				c-11.4-0.8-22.6-2.5-33.8-4.4c-6.5-1.1-13.1-2.1-19.6-3.2c-1.1-0.2-2,0.2-2.9,0.7c-9.9,5.1-19.8,10.3-29.8,15.4
				c-35.4,18-70.9,36-106.4,54c-5.1,2.6-10.4,5-15.6,7.4c-3.6,1.7-7.4,2.8-11.5,3.1c-3.3,0.3-6.4-0.2-9.2-1.8c-1.6-0.9-3-2-3.8-3.8
				c0.7-0.5,1.4-1,2.1-1.4c38.4-25.6,76.8-51.2,115.2-76.7c10.7-7.1,21.4-14.2,32.1-21.4c0.7-0.5,1.4-1,2-1.6
				c7.4-7.4,14.4-15,20.9-23c0.2-0.3,0.5-0.6,0.8-1.1c-0.6-0.1-1.1-0.3-1.5-0.3c-4.5-0.2-8.9-0.7-13.3-1.3
				c-6.2-0.8-12.5-1.2-18.8-1.6c-11.6-0.7-23.2-1.3-34.8-1.8c-9.9-0.5-19.7-0.9-29.6-1.3c-18-0.7-36.1-1.3-54.1-2
				c-7.1-0.3-14.3-0.6-21.4-1.5c-6.8-0.9-13.5-2.4-20.1-3.8c-18.3-3.7-36.6-7.5-54.9-11.2c-4.1-0.8-8.1-1.9-12.1-2.9
				c-1.3-0.3-2.4-0.3-3.6,0.1c-16.4,5.8-32.7,11.5-49.1,17.3c-2,0.7-4.1,1-6.2,1.2c-9.2,0.8-18.5,1.7-27.7,2.5c0-0.4,0-0.8,0-1.2
				c0.6-0.2,1.2-0.3,1.8-0.6c16.3-9.1,32.7-18.2,49-27.4c0.4-0.2,0.8-0.5,1.4-0.9c-1.8-0.7-3.3-1.4-4.9-2
				c-8.5-3.4-9.4-10.8-7.9-16.4c0.2-0.9,0.9-1.3,1.7-1.6c3.6-1.6,7.4-2.4,11.3-2.9c3.1-0.4,6.2-0.6,9.6-1
				c-18.5-27.3-36.9-54.5-55.5-81.9c2-0.2,3.6-0.4,5.4-0.6c8.1-0.8,16.3-1.5,24.4-2.3c1.2-0.1,1.9,0.4,2.7,1
				c9.3,6.6,18.6,13.2,27.9,19.8c11.9,8.4,23.7,16.9,35.6,25.3c0.4,0.3,0.8,0.5,1.5,1c0.3-1.2,0.6-2.1,0.9-3.3
				c6.1,0.5,12.2,1,18.3,1.5c0.5,3.3,1,6.3,1.5,9.4c0.4,2.2,0.7,4.4,1,6.5c0.2,1.1,0.6,1.9,1.6,2.6c6.2,4.4,12.5,8.8,18.7,13.2
				c1,0.8,2.1,1,3.4,1c8-0.4,15.9-0.6,23.9-0.9c8.1-0.3,16.2-0.7,24.3-1c15.3-0.6,30.5-1.2,45.8-1.9c7.6-0.3,15.2-0.6,22.8-0.9
				c15-0.6,30.1-1.2,45.1-1.8c7.2-0.3,14.5-0.6,21.7-0.9c15.5-0.6,31-1.2,46.5-1.9c7.7-0.3,15.5-0.6,23.2-0.9c0.7,0,1.5-0.1,2.4-0.1
				c0.1-0.8,0.3-1.5,0.3-2.3c0.9-11.8,1.8-23.5,1.7-35.3c-0.1-12.4-0.2-24.7-0.3-37.1c0-3.4-0.2-6.9-0.3-10.3
				C529.4,65.3,531.5,65.3,533.5,65.3z M504,280.7c-0.7,0-1.4,0-2.1,0c0,0.1,0,0.1,0,0.2C502.6,280.8,503.3,280.8,504,280.7
				c0.6,1,1.8,0.8,2.7,0.9c11.1,1.6,22.3,2.5,33.5,3.1c2.1,0.1,4.2,0,6.3,0c-0.7-0.2-1.4-0.1-2.1-0.2c-4.9-0.3-9.8-0.5-14.6-0.9
				c-6.2-0.5-12.3-1.2-18.5-1.8C508.9,281.5,506.5,281,504,280.7z M837.5,184.3c-0.1-0.8-0.1-1.5-0.2-2.2c-0.1-3.4-0.2-6.7-0.3-10.1
				c-0.1-3.3-0.4-2.6,2.9-3.4c7.2-1.7,14.5-3.3,21.3-5.8c2-0.8,3.8-1.9,5.6-3c0.7-0.4,1.2-1.1,1.7-1.8c0.7-1,0.4-1.8-0.7-2.5
				c-6.7-4-13.8-7-21.7-8.6c-9.4-2-19-2.7-28.7-3.4c-7.3-0.5-14.6-0.8-21.9-1.3c-8.5-0.6-17.1-0.5-25.6-0.1
				c-11.5,0.5-22.9,0.9-34.4,1.4c-8,0.3-15.9,0.6-23.9,0.9c-11.5,0.5-23.1,0.9-34.6,1.4c-7.9,0.3-15.8,0.6-23.7,0.9
				c-11.6,0.5-23.2,0.9-34.8,1.4c-7.8,0.3-15.6,0.6-23.5,0.9c-11.8,0.5-23.5,0.9-35.3,1.4c-7.7,0.3-15.3,0.6-23,0.9
				c-11.6,0.5-23.2,0.9-34.9,1.4c-7.8,0.3-15.6,0.6-23.5,0.9c-11.5,0.5-22.9,0.9-34.4,1.4c-8,0.3-15.9,0.6-23.9,0.9
				c-11.6,0.5-23.2,0.9-34.9,1.4c-7.8,0.3-15.6,0.6-23.5,0.9c-11.5,0.5-23.1,0.9-34.6,1.4c-7.9,0.3-15.8,0.6-23.7,0.9
				c-11.2,0.4-22.5,0.9-33.8,1.4c-1.5,0.1-2.6-0.3-3.8-1.1c-15-10.7-30.1-21.4-45.2-32.1c-20.6-14.6-41.2-29.2-61.8-43.9
				c-0.8-0.6-1.6-0.9-2.8-0.8c-7.8,0.8-15.7,1.5-23.6,2.2c-0.8,0.1-1.5,0.2-2.2,0.3c0,0.3,0,0.4,0,0.4c0,0.1,0,0.1,0.1,0.2
				c18.1,26.8,36.2,53.5,54.3,80.3c0.1,0.2,0.2,0.3,0.3,0.5c0.1,0.1,0.1,0.2,0.1,0.4c0,0.1,0,0.1,0,0.2c0,0.1-0.1,0.1-0.1,0.2
				c-3.1,0.2-6.2,0.3-9.4,0.6c-4,0.4-7.9,1.1-11.7,2.3c-1.8,0.6-2.6,1.4-2.9,3.2c-0.9,5.7,1.6,10.2,7.5,12.8c2,0.9,4,1.6,6.2,2.4
				c4.2-3.5,9.5-4.4,14.8-5.4c0.6-0.1,1.3-0.2,1.9-0.4c9.9-1.8,19.9-3.5,30.1-3.7c4.9-0.1,9.8,0.1,14.6,1.3c1.2,0.3,2.4,0.7,3.4,1.2
				c1.6,0.8,1.6,2.1,0.2,3.1c-0.6,0.4-1.2,0.7-1.9,1c-4,1.6-7.9,3.2-12,4.8c-5.2,2-10.5,3.8-15.8,5.8c-0.6,0.2-1.1,0.5-1.9,0.9
				c0.9,0.3,1.5,0.5,2,0.6c10.5,2.2,21,4.7,31.6,6.6c11.5,2,23.2,3.5,34.8,5c7.2,0.9,14.5,1.6,21.8,2c8.6,0.4,17.2,0.5,25.9,0.6
				c15.5,0.2,31,0.4,46.5,0.5c18.9,0.1,37.7,0.3,56.6,0.4c22.5,0.2,44.9,0.4,67.4,0.5c0.9,0,1.8,0,2.6-0.2
				c11.3-2.6,22.8-4.6,34.4-5.8c10.7-1.1,21.4-1.9,32.2-1.3c3.6,0.2,7.2,0.9,10.8,1.6c2.5,0.5,5,1.3,6.8,3c0.9,0.8,1.8,0.9,2.9,0.9
				c7.7-0.3,15.5-0.6,23.2-0.9c10.2-0.4,20.3-0.9,30.5-1.4c6.9-0.3,13.9-0.6,20.8-0.9c9.3-0.4,18.7-0.9,28-1.4
				c9.3-0.4,18.5-0.9,27.8-1.3c11.8-0.6,23.5-1.2,35.3-1.8c9.5-0.5,19-0.9,28.5-1.3c10.3-0.5,20.6-1,30.9-1.4
				c7.6-0.3,15.2-0.6,22.8-0.9c15-0.6,30-1.2,45-0.9c0.7,0,1.3,0,2-0.2c6.3-1.9,12.6-3.7,18.8-5.9c2.8-1,5.3-2.7,7.9-4.1
				c2.4-1.4,3.3-3.5,2.9-6.1c-0.3-1.4-0.6-2.8-0.8-4.2c-0.4-2.5-1.6-4.6-3.8-6.2c-2.1-1.5-4.3-3-6.7-4c-4.9-2.1-9.9-3.8-14.8-5.7
				c-3.9,3.7-8.2,6.8-12.5,9.7c-7.3,4.9-15.3,8.3-24.4,9.6C843.4,184.1,840.6,184.5,837.5,184.3z M581.7,214.2
				c-0.8-1.5-2.5-2.1-4.1-2.7c-4.2-1.6-8.6-2.1-13-2.4c-7.1-0.5-14.2-0.3-21.2,0.4c-8,0.8-16,1.5-23.9,2.6
				c-14.7,2.1-28.9,5.8-43.1,9.7c-1.2,0.3-2,0.8-2.7,1.8c-6.9,9.1-14.6,17.6-22.6,26c-2.7,2.8-5.5,5.3-8.9,7.4c-2,1.2-4,2.6-6,4
				c-45.7,30.4-91.4,60.9-137,91.3c-0.6,0.4-1.1,0.8-1.7,1.2c1,1.2,2.2,2,3.6,2.6c2.5,1,5.1,1.2,7.7,0.9c4.1-0.5,7.9-1.8,11.5-3.6
				c9.3-4.5,18.7-8.9,27.9-13.5c46.7-23.8,93.3-47.7,139.9-71.6c7.8-4,15.7-8,23.3-12.4c21.4-12.4,42.6-25.1,63.9-37.6
				c1.2-0.7,2.5-1.2,3.8-1.9C580,215.8,581.3,215.4,581.7,214.2z M587.1,147.8c-0.4-0.9-0.6-1.4-0.8-2
				c-5.8-13.6-11.6-27.1-17.4-40.6c-4.7-11.1-9.5-22.1-14.2-33.2c-0.6-1.3-1.3-1.9-2.9-2.1c-5.4-0.8-10.8-1.7-16.2-2.5
				c-2-0.3-4.1-0.6-6.4-0.9c0.5,28,1.5,55.7-1.3,83.5c0.7,0.1,1.1,0.1,1.5,0.1c5.8-0.2,11.7-0.4,17.5-0.6c1.1,0,2.2,0,3.3-0.3
				c5.5-1.3,11-2.6,16.5-4c3.3-0.9,5.6-2.9,6.7-5.7c0.7-1.8,1-3.8,1.4-5.6c0.2-0.6-0.1-1.3,0.5-2.3c2.2,5.7,4.4,11.1,6.5,16.6
				C583.6,147.9,585.2,147.9,587.1,147.8z M569.5,284.4c-3.7-2.8-6.2-6.1-6.4-10.4c-0.2-3-0.2-6,0-8.9c0.2-2.7,0.6-5.4,1.1-8.1
				c0.7-3.3,3-5.4,6.7-6.4c-1.5-0.5-2.9-0.9-4.4-1.2c-5.6-0.8-11.2-0.4-16.8,0.2c-10,1.2-20.1,2.7-30.1,4.1c-1.6,0.2-3,0.7-4.4,1.6
				c-3.1,1.8-6.2,3.7-9.4,5.4c-9.4,4.9-18.8,9.8-28.1,14.7c-0.6,0.3-1.1,0.6-2.2,1.2c3.9,0.6,7.3,1.1,10.6,1.6c0-0.1,0-0.2,0-0.2
				c-2.1-0.5-4.3-0.9-6.4-1.4c0-0.1,0-0.2,0.1-0.4c0.9,0.1,1.9,0.1,2.8,0.2c4.9,0.5,9.9,1,14.8,1.4c6.2,0.5,12.4,0.9,18.6,1.3
				c9.5,0.7,19,1,28.5,0.6c3.8-0.1,7.5-1,10.9-2.7c2.2-1.1,3.4-2.6,3.2-4.9c-0.2-1.7-0.5-3.3-0.7-5c-0.1-1-0.4-2-0.1-2.9
				c1.4-3.9,2.9-7.7,5.5-11.1c0.5-0.7,1.3-1.3,1.9-2c0.1,0.8-0.2,1.4-0.4,1.9c-0.6,1.6-1.4,3.3-1.8,5c-0.6,3.2-1,6.4-1.3,9.6
				c-0.6,5,0.3,9.8,3.7,14c0.4,0.5,0.7,1.1,1,1.7c0.2,0.4,0.3,0.8,0.5,1.5c-6,0.3-11.7,0-17.4,0.2c6.1,0.2,12.1,0.2,18.2,0.2
				c1.4,0,2.7-0.3,3.8-1.3C570.9,284.1,570.3,284.2,569.5,284.4z M126.7,219.1c7.9-0.7,15.3-1.4,22.7-2.1c1.3-0.1,2.6-0.3,3.8-0.7
				c27.8-9.8,55.9-19,83.2-29.9c1-0.4,2-0.9,3.5-1.6c-1.3-0.5-2-0.9-2.8-1.1c-1.6-0.4-3.2-0.8-4.9-1c-6.5-0.9-13-0.6-19.4,0.1
				c-9.8,1-19.5,2.7-29,4.9c-1.2,0.3-2.4,0.7-3.4,1.3c-17.2,9.6-34.5,19.2-51.7,28.9C128.1,218.1,127.6,218.5,126.7,219.1z
				 M227.3,128c-1,2.5-0.9,2.6,1.1,4.1c4.8,3.4,9.5,6.8,14.3,10.2c0.5,0.4,1.1,0.7,2.1,1.4c-0.8-5.1-1.6-9.8-2.4-14.5
				C237.3,128.8,232.4,128.4,227.3,128z M581,225.5c-5.2,0-10,0-14.8,0c-0.4,0-0.8,0.4-1.2,0.6C570.3,226.4,575.4,226.5,581,225.5z"
				/>
			<path class="st0" d="M581.7,214.2c-0.4,1.2-1.7,1.6-2.7,2.1c-1.3,0.6-2.6,1.1-3.8,1.9c-21.3,12.6-42.5,25.2-63.9,37.6
				c-7.6,4.4-15.5,8.4-23.3,12.4c-46.6,23.9-93.2,47.8-139.9,71.6c-9.2,4.7-18.6,9.1-27.9,13.5c-3.6,1.8-7.4,3.1-11.5,3.6
				c-2.7,0.3-5.2,0.1-7.7-0.9c-1.4-0.6-2.6-1.4-3.6-2.6c0.6-0.4,1.1-0.9,1.7-1.2c45.7-30.4,91.4-60.9,137-91.3c2-1.3,3.9-2.7,6-4
				c3.4-2.1,6.3-4.6,8.9-7.4c8-8.4,15.7-16.9,22.6-26c0.7-0.9,1.5-1.4,2.7-1.8c14.1-3.9,28.4-7.6,43.1-9.7
				c7.9-1.1,15.9-1.9,23.9-2.6c7.1-0.7,14.2-0.9,21.2-0.4c4.5,0.3,8.9,0.8,13,2.4C579.2,212.1,580.8,212.6,581.7,214.2z M558.4,218
				c-0.1-0.1-0.2-0.2-0.3-0.3c-0.7,0.4-1.4,0.7-2,1c-11.2,5.9-22.2,12-33.5,17.8c-61.5,31.9-123.1,63.8-184.7,95.7
				c-8.5,4.4-16.9,8.7-25.4,13c-1.8,0.9-3.2,2.1-4.2,3.6c-1.1,1.6-0.5,2.6,1.6,2.8c0.4,0.1,0.9,0,1.3,0.1c2.2,0,4.2-0.6,6.1-1.5
				c3.7-1.7,7.4-3.4,11-5.3c18.7-10,37.3-20.2,56-30.1c24.1-12.8,48.3-25.3,72.3-38.1c32.2-17.2,63.8-35.1,94.6-54.2
				C553.7,221,556.1,219.5,558.4,218z"/>
			<path class="st0" d="M587.1,147.8c-1.9,0.1-3.5,0.2-5.3,0.3c-2.1-5.4-4.2-10.8-6.5-16.6c-0.6,0.9-0.4,1.6-0.5,2.3
				c-0.4,1.9-0.7,3.8-1.4,5.6c-1.1,2.8-3.4,4.8-6.7,5.7c-5.5,1.4-11,2.7-16.5,4c-1,0.2-2.2,0.2-3.3,0.3c-5.8,0.2-11.7,0.4-17.5,0.6
				c-0.4,0-0.8-0.1-1.5-0.1c2.9-27.8,1.8-55.5,1.3-83.5c2.3,0.3,4.3,0.6,6.4,0.9c5.4,0.8,10.8,1.8,16.2,2.5c1.6,0.2,2.3,0.8,2.9,2.1
				c4.7,11.1,9.5,22.1,14.2,33.2c5.8,13.6,11.6,27.1,17.4,40.6C586.5,146.3,586.7,146.9,587.1,147.8z M574.3,129.4
				c0.2,0,0.5-0.1,0.7-0.1c-2.4-17.5-10.6-33.1-19.1-48.7c-0.2,0.1-0.3,0.1-0.5,0.2C561.7,97,568,113.2,574.3,129.4z"/>
			<path class="st0" d="M569.5,284.4c0.7-0.2,1.3-0.3,2-0.4c-1,1-2.3,1.3-3.8,1.3c-6.1,0-12.1,0-18.2-0.2c5.7-0.2,11.4,0,17.4-0.2
				c-0.2-0.7-0.3-1.1-0.5-1.5c-0.3-0.6-0.6-1.2-1-1.7c-3.4-4.2-4.3-9-3.7-14c0.4-3.2,0.7-6.4,1.3-9.6c0.3-1.7,1.2-3.3,1.8-5
				c0.2-0.6,0.5-1.2,0.4-1.9c-0.7,0.7-1.4,1.3-1.9,2c-2.6,3.4-4.1,7.3-5.5,11.1c-0.3,0.9,0,1.9,0.1,2.9c0.2,1.7,0.5,3.3,0.7,5
				c0.3,2.3-1,3.8-3.2,4.9c-3.4,1.7-7,2.6-10.9,2.7c-9.5,0.3-19,0-28.5-0.6c-6.2-0.4-12.4-0.8-18.6-1.3c-5-0.4-9.9-0.9-14.8-1.4
				c-0.9-0.1-1.9-0.1-2.8-0.2c0,0.1,0,0.2-0.1,0.4c2.1,0.5,4.3,0.9,6.4,1.4c0,0.1,0,0.2,0,0.2c-3.3-0.5-6.7-1-10.6-1.6
				c1-0.6,1.6-0.9,2.2-1.2c9.4-4.9,18.8-9.8,28.1-14.7c3.2-1.7,6.3-3.5,9.4-5.4c1.4-0.8,2.8-1.3,4.4-1.6c10-1.4,20-2.9,30.1-4.1
				c5.6-0.7,11.2-1,16.8-0.2c1.5,0.2,2.9,0.6,4.4,1.2c-3.7,1-6,3.1-6.7,6.4c-0.5,2.7-1,5.4-1.1,8.1c-0.2,3-0.1,6,0,8.9
				C563.4,278.3,565.9,281.6,569.5,284.4z"/>
			<path class="st0" d="M126.7,219.1c0.9-0.6,1.4-0.9,1.9-1.2c17.2-9.6,34.5-19.3,51.7-28.9c1-0.6,2.2-1,3.4-1.3
				c9.6-2.2,19.2-3.9,29-4.9c6.5-0.7,13-1,19.4-0.1c1.6,0.2,3.3,0.6,4.9,1c0.8,0.2,1.6,0.6,2.8,1.1c-1.5,0.7-2.4,1.2-3.5,1.6
				c-27.3,10.9-55.4,20-83.2,29.9c-1.2,0.4-2.5,0.6-3.8,0.7C142,217.7,134.6,218.3,126.7,219.1z"/>
			<path class="st0" d="M227.3,128c5.1,0.4,10,0.8,15.2,1.2c0.8,4.7,1.5,9.4,2.4,14.5c-1-0.7-1.6-1-2.1-1.4
				c-4.8-3.4-9.5-6.8-14.3-10.2C226.4,130.6,226.3,130.5,227.3,128z"/>
			<path class="st0" d="M504,280.7c2.4,0.4,4.9,0.8,7.3,1.1c6.2,0.7,12.3,1.3,18.5,1.8c4.9,0.4,9.8,0.6,14.6,0.9
				c0.7,0,1.4,0,2.1,0.2c-2.1,0-4.2,0.1-6.3,0c-11.2-0.6-22.4-1.5-33.5-3.1C505.8,281.4,504.6,281.6,504,280.7L504,280.7z"/>
			<path class="st0" d="M581,225.5c-5.5,0.9-10.7,0.9-16,0.6c0.4-0.2,0.8-0.6,1.2-0.6C571,225.5,575.7,225.5,581,225.5z"/>
			<path class="st0" d="M504,280.7c-0.7,0.1-1.4,0.2-2.1,0.2c0-0.1,0-0.1,0-0.2C502.6,280.7,503.3,280.7,504,280.7L504,280.7z"/>
			<path d="M256.5,162.3c-6.9,0.4-13.8,0.9-20.7,1.3c-7.9,0.5-15.7,1-23.6,1.4c-7.7,0.5-15.5,0.9-23.2,1.4c-1.1,0.1-1.9-0.1-2.5-1.1
				c-5.6-8.8-11.3-17.5-16.9-26.3c-0.2-0.3-0.3-0.6-0.1-1c0.5,0.6,1,1.1,1.5,1.7c4.1,5,8.3,9.9,13.1,14.3c1.5,1.3,3.1,2.6,4.7,3.8
				c2.9,2.3,6.4,3.5,10.3,3.8c5.5,0.3,11.1,0.8,16.6,0.8c12.3,0,24.6-0.2,36.8-0.3c1.3,0,2.6,0,3.9,0
				C256.5,162.1,256.5,162.2,256.5,162.3z"/>
			<path d="M817.1,165.2c0.2,1.2,0.4,2.3,0.5,3.4c0.6,6.4,1,12.8,1.7,19.1c0.3,2.8,0.9,5.5,1.4,8.2c0.1,0.4,0.2,0.8,0.2,1.2
				c0,1.4-0.5,1.9-2,1.9c-5.2,0-10.4,0-15.6,0c-1.3-2-1.8-4.2-2.4-6.3c-2.1-6.9-1.9-14-1.7-21c0-1.4,0.2-2.8,0.4-4.2
				c0.1-1,0.8-1.5,1.9-1.5C806.5,165.7,811.6,165.5,817.1,165.2z M819.2,197.4c-2.2-10.2-2.8-20.3-3.5-30.6c-5,0.3-9.7,0.5-14.6,0.8
				c-0.5,10.2-1,20.2,3.2,29.8C809.2,197.4,814.1,197.4,819.2,197.4z"/>
			<path d="M656.6,201.4c-3.4,0.1-6.1,0.2-8.8,0.2c-2.7,0.1-5.4,0.1-8.1,0.1c-2.2,0-2.2,0-3-1.8c-2.6-6.1-3.3-12.3-2.5-18.7
				c0.3-2.6,0.7-5.2,1.1-8.1c6.1,0,12,0,18.3,0C652.2,182.7,652,192.1,656.6,201.4z M651.4,174.6c-4.8,0-9.6-0.1-14.5,0.2
				c-1.6,8.8-2.2,17.2,1.8,25.2c5.1,0,10,0,14.8,0c-0.9-4.4-2.1-8.4-2.4-12.6C650.8,183.2,651.2,179,651.4,174.6z"/>
			<path d="M465.1,203.1c-2.6,0-4.7,0-6.8,0c-3.1,0-6.1,0-9.2,0c-2.3,0-2.6,0-3.3-2.1c-1-2.6-1.8-5.3-2.4-8.1
				c-0.8-3.8-1.4-7.7-0.7-11.6c0-0.3,0-0.5,0.1-0.8c0.7-4,1.3-4.5,5.8-4.6c3.6-0.1,7.2-0.1,10.8-0.2c0.6,0,1.1,0.1,1.9,0.1
				C459.1,185.4,460.6,194.3,465.1,203.1z M459,177.6c-0.9,0-1.4-0.1-1.9-0.1c-3.1,0-6.1,0.1-9.2,0.1c-2.6,0.1-2.7,0.1-3.3,2.4
				c-0.1,0.3-0.1,0.6-0.2,0.9c-0.6,2.8-0.4,5.7,0,8.5c0.5,3.6,1.2,7.2,2.6,10.6c0.4,1.1,1,1.5,2.4,1.5c3.6-0.1,7.3,0,11,0
				c0.5,0,1.1,0,2,0C458.9,193.8,457.6,185.9,459,177.6z"/>
			<path d="M277.6,178.7c-1.1,3.4-0.8,6.7-0.9,10c-0.1,3.4,1.5,6.4,3,9.8c-5.4-0.2-10.3-0.7-15.4-1.1c-2.4-6.3-3.1-12.6-0.6-19.2
				C268.4,178.3,272.9,178.5,277.6,178.7z M275.2,180.1c-3.5-0.1-6.8-0.2-10.1-0.4c-1.8,5.6-1.3,10.8,0.7,16.1
				c3.7,0.3,7.3,0.6,11.2,0.9C274.2,191.3,275,185.9,275.2,180.1z"/>
			<path d="M767.6,186.9c-2.6,0-5,0-7.7,0c0-2.2,0-4.4,0-6.6c1.4-0.5,5.5-0.6,7.7-0.1C767.6,182.4,767.6,184.6,767.6,186.9z"/>
			<path d="M712.9,187.6c0-2.4,0-4.5,0-6.9c2.5-0.3,5-0.1,7.8-0.2c0,2.4,0,4.6,0,6.9C718.2,187.7,715.7,187.6,712.9,187.6z"/>
			<path d="M689.4,180.9c0,2.3,0,4.5,0,6.8c-2.5,0-4.9,0-7.7,0c-0.4-2-0.1-4.3-0.2-6.7C684.1,180.9,686.6,180.8,689.4,180.9z"/>
			<path d="M783.2,186.8c-2.6,0-5.1,0-7.7,0c0-2.3,0-4.4,0-6.8c2.5,0,5,0,7.7,0C783.2,182.2,783.2,184.4,783.2,186.8z"/>
			<path d="M736.3,180.3c0,2.4,0,4.6,0,6.9c-2.5,0-5,0-7.7,0c0-2.2,0-4.4,0-6.8C731,180.3,733.5,180.3,736.3,180.3z"/>
			<path d="M744.2,187.1c0-2.3,0-4.4,0-6.7c2.5,0,5,0,7.8,0c0.1,2.1,0.1,4.3,0.1,6.7C749.5,187.1,747,187.1,744.2,187.1z"/>
			<path d="M705.1,187.6c-2.7,0-5.1,0-7.8,0c0-2.3,0-4.5,0-6.8c2.5,0,5,0,7.7,0C705.2,183,705.2,185.2,705.1,187.6z"/>
			<path d="M666.1,181.1c2.5,0,5,0,7.6,0c0,2.3,0,4.5,0,6.8c-2.5,0-4.9,0-7.6,0C666.1,185.8,666.1,183.6,666.1,181.1z"/>
			<path d="M562.7,184.8c0,2.1,0,4.1,0,6.3c-2.3,0.2-4.6,0.1-7.1,0.1c0-2.2,0-4.2,0-6.4C557.9,184.8,560.1,184.8,562.7,184.8z"/>
			<path d="M598.7,184.4c2.3,0,4.5,0,7.1,0c0,1.1,0.1,2.1,0.1,3.1s0,1.9,0,3.2c-2.4,0.1-4.7,0.1-7.2,0.1
				C598.7,188.7,598.7,186.6,598.7,184.4z"/>
			<path d="M490.8,191.7c-2.2,0-4.5,0-6.9,0c-0.5-1.9-0.1-4-0.3-6.1c2.5-0.5,4.7-0.1,7.2-0.3C490.8,187.5,490.8,189.5,490.8,191.7z"
				/>
			<path d="M620.1,184.4c0,2,0,4,0,6.2c-2.3,0.4-4.6,0.1-7,0.2c0-2.2,0-4.2,0-6.4C615.4,184.4,617.7,184.4,620.1,184.4z"/>
			<path d="M519.6,191.5c-2.4,0-4.6,0-7.1,0c-0.1-2-0.1-4.1-0.1-6.2c2.4,0,4.6,0,7.1,0C519.7,187.2,519.8,189.3,519.6,191.5z"/>
			<path d="M526.9,191.3c0-2.1,0-4.1,0-6.3c2.3-0.1,4.5-0.1,7-0.1c0,2.2,0,4.2,0,6.4C531.7,191.3,529.4,191.3,526.9,191.3z"/>
			<path d="M469.5,191.8c0-2.1,0-4.1,0-6.3c2.3,0,4.5,0,7,0c0,2.1,0,4.1,0,6.3C474.2,191.8,471.9,191.8,469.5,191.8z"/>
			<path d="M505.2,191.6c-2.4,0-4.7,0-7.1,0c0-2.1,0-4.1,0-6.2c2.4,0,4.6,0,7.1,0C505.2,187.4,505.2,189.3,505.2,191.6z"/>
			<path d="M577,184.7c0,2.1,0,4.1,0,6.3c-2.4,0-4.6,0-7,0c0-2.1,0-4.1,0-6.3C572.3,184.7,574.6,184.7,577,184.7z"/>
			<path d="M541.1,184.9c2.5,0,4.8,0,7.2,0c0,2.1,0,4.1,0,6.2c-2.3,0-4.5,0-7,0C540.8,189.1,541.2,187.1,541.1,184.9z"/>
			<path d="M591.4,184.6c0,2.1,0,4,0,6.2c-1.2,0-2.3,0.1-3.5,0.1c-1.1,0-2.2,0-3.4,0c-0.6-2.1-0.3-4.1-0.4-6.3
				C586.7,184.6,589,184.6,591.4,184.6z"/>
			<path d="M400.5,193.5c-2.4,0-4.5,0-6.9,0c-0.2-2-0.1-3.9-0.1-6c2.3,0,4.5,0,6.8,0C400.7,189.5,400.5,191.5,400.5,193.5z"/>
			<path d="M352.5,187.8c2.2,0,4.3,0,6.7,0c0.3,1.9,0.1,3.9,0.1,6c-2.4,0-4.5,0-6.9,0C352.5,191.9,352.5,190,352.5,187.8z"/>
			<path d="M325,188.1c2.4,0,4.5,0,6.8,0c0,2,0,3.9,0,6c-2.1,0.2-4.3,0.1-6.7,0.1C324.9,192.2,324.9,190.3,325,188.1z"/>
			<path d="M414.1,187.4c0,2,0,3.9,0,5.9c-2.2,0-4.3,0-6.7,0c0-1.9,0-3.9,0-5.9C409.5,187.4,411.6,187.4,414.1,187.4z"/>
			<path d="M297.6,188.5c2.2,0,4.3,0,6.7,0c0,1.9,0,3.8,0,5.9c-2.1,0-4.3,0-6.7,0C297.6,192.6,297.6,190.7,297.6,188.5z"/>
			<path d="M311.3,194.2c0-1.9,0-3.8,0-5.9c2.2,0,4.3,0,6.7,0c0,1.9,0,3.8,0,5.9C315.9,194.2,313.7,194.2,311.3,194.2z"/>
			<path d="M338.7,194c0-1.9,0-3.8,0-5.9c2.2,0,4.4,0,6.7,0c0,1.9,0,3.8,0,5.9C343.3,194,341.1,194,338.7,194z"/>
			<path d="M366.2,187.7c2.3,0,4.4,0,6.7,0c0,2,0,3.9,0,6c-2.2,0-4.4,0-6.7,0C366.2,191.8,366.2,189.9,366.2,187.7z"/>
			<path d="M379.9,193.6c0-2,0-3.8,0-5.9c2.2,0,4.4,0,6.8,0c0,1.9,0,3.8,0,5.9C384.4,193.6,382.3,193.6,379.9,193.6z"/>
			<path d="M427.8,193.1c-2.2,0-4.4,0-6.7,0c0-1.9,0-3.8,0-5.9c2.1,0,4.3,0,6.7,0C427.8,189.2,427.8,191,427.8,193.1z"/>
			<path d="M435.2,187.4c0,1.8,0,3.7,0,5.8C434.6,191.7,434.5,188.9,435.2,187.4z"/>
			<path d="M558.4,218c-2.4,1.5-4.7,3-7.1,4.5c-30.8,19.1-62.4,37-94.6,54.2c-24,12.8-48.3,25.4-72.3,38.1
				c-18.7,10-37.4,20.1-56,30.1c-3.6,1.9-7.3,3.6-11,5.3c-1.9,0.9-3.9,1.5-6.1,1.5c-0.4,0-0.9,0-1.3-0.1c-2.1-0.3-2.7-1.3-1.6-2.8
				c1-1.5,2.4-2.7,4.2-3.6c8.5-4.3,17-8.6,25.4-13c61.6-31.9,123.1-63.8,184.7-95.7c11.2-5.8,22.3-11.9,33.5-17.8
				c0.7-0.4,1.4-0.7,2-1C558.3,217.8,558.3,217.9,558.4,218z"/>
			<path d="M574.3,129.4c-6.3-16.2-12.6-32.4-18.9-48.7c0.2-0.1,0.3-0.1,0.5-0.2c8.5,15.6,16.8,31.2,19.1,48.7
				C574.8,129.3,574.6,129.4,574.3,129.4z"/>
			<path class="st0" d="M819.2,197.4c-5.2,0-10,0-15,0c-4.2-9.7-3.7-19.6-3.2-29.8c4.9-0.3,9.6-0.5,14.6-0.8
				C816.4,177.1,817,187.2,819.2,197.4z"/>
			<path class="st0" d="M651.4,174.6c-0.1,4.4-0.6,8.6-0.3,12.8c0.3,4.1,1.5,8.2,2.4,12.6c-4.8,0-9.7,0-14.8,0
				c-4-8-3.3-16.4-1.8-25.2C641.8,174.5,646.6,174.6,651.4,174.6z"/>
			<path class="st0" d="M459,177.6c-1.5,8.3-0.1,16.2,3.4,24c-0.9,0-1.4,0-2,0c-3.7,0-7.3-0.1-11,0c-1.4,0-2-0.4-2.4-1.5
				c-1.4-3.4-2.1-7-2.6-10.6c-0.4-2.8-0.7-5.7,0-8.5c0.1-0.3,0.1-0.6,0.2-0.9c0.6-2.3,0.7-2.4,3.3-2.4c3.1-0.1,6.1-0.1,9.2-0.1
				C457.7,177.5,458.2,177.5,459,177.6z"/>
			<path class="st0" d="M275.2,180.1c-0.2,5.7-1.1,11.2,1.8,16.6c-4-0.3-7.6-0.6-11.2-0.9c-2-5.3-2.5-10.6-0.7-16.1
				C268.4,179.9,271.8,180,275.2,180.1z"/>
		</g>
	</g>
</g>
</svg>
